<svg id="Layer_1" data-name="Layer 1" xmlns="http://www.w3.org/2000/svg" viewBox="0 0 496 496"><defs><style>.cls-1{fill:#fff;}</style></defs><path class="cls-1" d="M256,504c137,0,248-111,248-248S393,8,256,8,8,119,8,256,119,504,256,504Zm0-448A200,200,0,1,1,56,256,199.94,199.94,0,0,1,256,56ZM126.1,245.1,247.5,123.7a12,12,0,0,1,17,0L385.9,245.1a12,12,0,0,1,0,17l-19.6,19.6a12,12,0,0,1-17.2-.2L282,211.2V372a12,12,0,0,1-12,12H242a12,12,0,0,1-12-12V211.2l-67.1,70.3a12,12,0,0,1-17.2.2l-19.6-19.6A12,12,0,0,1,126.1,245.1Z" transform="translate(-8 -8)"/></svg>